{"title":"Batman.O.Cavaleiro.das.Trevas.Ressurge.TS.XviD.Dublado-KGB","uid":7488150,"size":962011966,"categoryP":"video","categoryS":"movies","magnet":"?xt=urn:btih:5ad13afe02c0bb53940cd063ea9f687d2832fed2&amp;dn=Batman.O.Cavaleiro.das.Trevas.Ressurge.TS.XviD.Dublado-KGB&amp;tr=udp%3A%2F%2Ftracker.openbittorrent.com%3A80&amp;tr=udp%3A%2F%2Fopen.demonii.com%3A1337&amp;tr=udp%3A%2F%2Ftracker.coppersurfer.tk%3A6969&amp;tr=udp%3A%2F%2Fexodus.desync.com%3A6969","seeders":2,"leechers":1,"uploader":"marcusfilipp","files":2,"time":1343654641,"description":"\nBatman - O Cavaleiro das Trevas Ressurge | The Dark Knight Rises\n\nBatman.O.Cavaleiro.das.Trevas.Ressurge.TS.XviD.Dublado-KGB\n\nBatman.O.Cavaleiro.das.Trevas.Ressurge.TS.XviD.Dublado-KGBBatman.O.Cavaleiro.das.Trevas.Ressurge.TS.XviD.Dublado-KGB.avi\nFormat                                   : AVI\nFormat/Info                              : Audio Video Interleave\nFormat profile                           : OpenDML\nFormat settings                          : rec\nFile size                                : 910 MiB\nDuration                                 : 2h 36mn\nOverall bit rate                         : 812 Kbps\nWriting application                      : AVI-Mux GUI 1.17.8, Aug 30 2008  12:36:58\n\nVideo\nID                                       : 0\nFormat                                   : xvid\nCodec ID                                 : xvid\nDuration                                 : 2h 36mn\nBit rate                                 : 675 Kbps\nWidth                                    : 720 pixels\nHeight                                   : 300 pixels\nDisplay aspect ratio                     : 2.40:1\nFrame rate                               : 29.970 fps\nBits/(Pixel*Frame)                       : 0.104\nStream size                              : 757 MiB (83%)\n\nAudio\nID                                       : 1\nFormat                                   : MPEG Audio\nFormat version                           : Version 1\nFormat profile                           : Layer 3\nCodec ID                                 : 55\nCodec ID/Hint                            : MP3\nDuration                                 : 2h 36mn\nBit rate mode                            : Constant\nBit rate                                 : 128 Kbps\nChannel(s)                               : 2 channels\nSampling rate                            : 44.1 KHz\nCompression mode                         : Lossy\nStream size                              : 143 MiB (16%)\nAlignment                                : Aligned on interleaves\nInterleave, duration                     : 26 ms (0.78 video frame)\nInterleave, preload duration             : 182 ms\nTitle                                    : Portugues BR - KGB\n\n","torrent":{"xt":"urn:btih:5ad13afe02c0bb53940cd063ea9f687d2832fed2","amp;dn":"Batman.O.Cavaleiro.das.Trevas.Ressurge.TS.XviD.Dublado-KGB","amp;tr":["udp%3A%2F%2Ftracker.openbittorrent.com%3A80","udp%3A%2F%2Fopen.demonii.com%3A1337","udp%3A%2F%2Ftracker.coppersurfer.tk%3A6969","udp%3A%2F%2Fexodus.desync.com%3A6969"],"infoHash":"5ad13afe02c0bb53940cd063ea9f687d2832fed2","infoHashBuffer":{"type":"Buffer","data":[90,209,58,254,2,192,187,83,148,12,208,99,234,159,104,125,40,50,254,210]},"announce":[],"urlList":[]}}